<svg width="163" height="160" viewBox="0 0 163 160" fill="none" xmlns="http://www.w3.org/2000/svg">
<g filter="url(#filter0_d_585_33)">
<path d="M81.4999 9.63034C62.8577 9.44091 44.903 16.6609 31.5817 29.7037C18.2605 42.7464 10.6627 60.5445 10.4583 79.1866C10.5301 93.9192 15.2693 108.25 23.9953 120.12C32.7213 131.991 44.985 140.791 59.0249 145.255C62.577 145.901 63.8687 143.77 63.8687 141.897C63.8687 140.024 63.8687 135.891 63.8687 130.078C44.1062 134.276 39.9083 120.778 39.9083 120.778C38.5927 116.541 35.7958 112.919 32.0291 110.574C25.5708 106.312 32.5458 106.376 32.5458 106.376C34.7781 106.675 36.9139 107.475 38.793 108.716C40.672 109.958 42.2456 111.609 43.3958 113.545C45.4 117.02 48.6886 119.57 52.5537 120.645C56.4189 121.72 60.5516 121.234 64.0624 119.293C64.4235 115.756 66.0251 112.462 68.5833 109.993C52.8249 108.249 36.2916 102.307 36.2916 75.6345C36.1507 68.6768 38.7215 61.9371 43.4603 56.8408C41.3021 50.8673 41.557 44.2878 44.1708 38.4991C44.1708 38.4991 50.177 36.6262 63.5458 45.6033C75.183 42.5022 87.4294 42.5022 99.0666 45.6033C112.629 36.6262 118.442 38.4991 118.442 38.4991C121.055 44.2878 121.31 50.8673 119.152 56.8408C124.001 61.8437 126.711 68.5382 126.708 75.5053C126.708 102.243 110.046 108.12 94.4166 109.864C96.1279 111.525 97.4499 113.545 98.2874 115.779C99.1249 118.012 99.4572 120.403 99.2603 122.78V141.832C99.2603 141.832 100.552 145.901 104.104 145.191C118.104 140.698 130.327 131.897 139.026 120.043C147.725 108.189 152.455 93.8896 152.542 79.1866C152.337 60.5445 144.739 42.7464 131.418 29.7037C118.097 16.6609 100.142 9.44091 81.4999 9.63034Z" fill="#231F20"/>
</g>
<defs>
<filter id="filter0_d_585_33" x="-6" y="-6" width="175" height="175" filterUnits="userSpaceOnUse" color-interpolation-filters="sRGB">
<feFlood flood-opacity="0" result="BackgroundImageFix"/>
<feColorMatrix in="SourceAlpha" type="matrix" values="0 0 0 0 0 0 0 0 0 0 0 0 0 0 0 0 0 0 127 0" result="hardAlpha"/>
<feOffset dy="4"/>
<feGaussianBlur stdDeviation="5"/>
<feComposite in2="hardAlpha" operator="out"/>
<feColorMatrix type="matrix" values="0 0 0 0 0 0 0 0 0 0 0 0 0 0 0 0 0 0 0.25 0"/>
<feBlend mode="normal" in2="BackgroundImageFix" result="effect1_dropShadow_585_33"/>
<feBlend mode="normal" in="SourceGraphic" in2="effect1_dropShadow_585_33" result="shape"/>
</filter>
</defs>
</svg>
